<svg width="24" height="24" viewBox="0 0 24 24" fill="none" xmlns="http://www.w3.org/2000/svg">
<g clip-path="url(#clip0)">
<path fill-rule="evenodd" clip-rule="evenodd" d="M3.12209 11.2928C1.95052 12.4644 1.95052 14.3639 3.12209 15.5355L8.58659 21L1.70077 21C1.31417 21 1.00077 21.3134 1.00077 21.7C1.00077 22.0866 1.31417 22.4 1.70077 22.4L22.3008 22.4C22.6874 22.4 23.0008 22.0866 23.0008 21.7C23.0008 21.3134 22.6874 21 22.3008 21L13.2139 21L21.5069 12.707C22.6784 11.5355 22.6784 9.63597 21.5069 8.4644L15.85 2.80754C14.6784 1.63597 12.7789 1.63597 11.6074 2.80754L3.12209 11.2928ZM12.5973 3.79749L4.11204 12.2828C3.4872 12.9076 3.4872 13.9207 4.11204 14.5455L9.7689 20.2024C10.3937 20.8272 11.4068 20.8272 12.0316 20.2024L20.5169 11.7171C21.1418 11.0922 21.1418 10.0792 20.5169 9.45435L14.8601 3.79749C14.2352 3.17265 13.2222 3.17265 12.5973 3.79749ZM15.0325 14.939L12.706 12.6463L10.3652 15.0217L9.37523 14.0317L11.7088 11.6637L9.33417 9.32353L10.3241 8.33358L12.6915 10.6665L14.9907 8.33342L15.9806 9.32337L13.6886 11.6492L16.0224 13.949L15.0325 14.939Z" fill="white"/>
</g>
<defs>
<clipPath id="clip0">
<rect width="24" height="24" fill="white"/>
</clipPath>
</defs>
</svg>
