<svg width="24" height="24" viewBox="0 0 24 24" fill="none" xmlns="http://www.w3.org/2000/svg">
<g clip-path="url(#clip0)">
<path d="M10.1629 14.7053L10.1686 14.6995L8.00555 12.5365L8.9955 11.5465L11.1511 13.7022L15.6641 9.12125L16.654 10.1112L11.1529 15.6952L10.1629 14.7053Z" fill="white"/>
<path fill-rule="evenodd" clip-rule="evenodd" d="M3.12132 11.6064C1.94975 12.778 1.94975 14.6775 3.12132 15.849L8.27209 20.9998H1.7C1.3134 20.9998 1 21.3132 1 21.6998C1 22.0864 1.3134 22.3998 1.7 22.3998H22.3C22.6866 22.3998 23 22.0864 23 21.6998C23 21.3132 22.6866 20.9998 22.3 20.9998H13.5269L21.5061 13.0206C22.6777 11.849 22.6777 9.94954 21.5061 8.77797L15.8492 3.12111C14.6777 1.94954 12.7782 1.94954 11.6066 3.12111L3.12132 11.6064ZM12.5966 4.11106L4.11127 12.5963C3.48643 13.2212 3.48643 14.2342 4.11127 14.8591L9.76812 20.5159C10.393 21.1408 11.406 21.1408 12.0309 20.5159L20.5161 12.0307C21.141 11.4058 21.141 10.3928 20.5161 9.76791L14.8593 4.11106C14.2345 3.48622 13.2214 3.48622 12.5966 4.11106Z" fill="white"/>
</g>
<defs>
<clipPath id="clip0">
<rect width="24" height="24" fill="white"/>
</clipPath>
</defs>
</svg>
