<svg width="24" height="24" viewBox="0 0 24 24" fill="none" xmlns="http://www.w3.org/2000/svg">
<path d="M24 4.69176C24 4.24308 23.8071 3.81277 23.4638 3.49551C23.1204 3.17824 22.6548 3 22.1692 3H2.03077C1.54522 3 1.07956 3.17824 0.73622 3.49551C0.392884 3.81277 0.2 4.24308 0.2 4.69176V19.9176C0.2 20.3663 0.392884 20.7966 0.73622 21.1139C1.07956 21.4311 1.54522 21.6094 2.03077 21.6094H22.1692C22.6548 21.6094 23.1204 21.4311 23.4638 21.1139C23.8071 20.7966 24 20.3663 24 19.9176V4.69176V4.69176ZM2.03077 4.69176H22.1692V19.9176H2.03077V4.69176Z" fill="#3173DC"/>
<path d="M19 8.70078C19 8.46209 18.9017 8.23317 18.7266 8.06439C18.5516 7.8956 18.3142 7.80078 18.0667 7.80078H5.93333C5.6858 7.80078 5.4484 7.8956 5.27337 8.06439C5.09833 8.23317 5 8.46209 5 8.70078C5 8.93948 5.09833 9.16839 5.27337 9.33718C5.4484 9.50596 5.6858 9.60078 5.93333 9.60078H18.0667C18.3142 9.60078 18.5516 9.50596 18.7266 9.33718C18.9017 9.16839 19 8.93948 19 8.70078ZM19 12.3008C19 12.0621 18.9017 11.8332 18.7266 11.6644C18.5516 11.4956 18.3142 11.4008 18.0667 11.4008H5.93333C5.6858 11.4008 5.4484 11.4956 5.27337 11.6644C5.09833 11.8332 5 12.0621 5 12.3008C5 12.5395 5.09833 12.7684 5.27337 12.9372C5.4484 13.106 5.6858 13.2008 5.93333 13.2008H18.0667C18.3142 13.2008 18.5516 13.106 18.7266 12.9372C18.9017 12.7684 19 12.5395 19 12.3008V12.3008ZM19 15.9008C19 15.6621 18.9017 15.4332 18.7266 15.2644C18.5516 15.0956 18.3142 15.0008 18.0667 15.0008H5.93333C5.6858 15.0008 5.4484 15.0956 5.27337 15.2644C5.09833 15.4332 5 15.6621 5 15.9008C5 16.1395 5.09833 16.3684 5.27337 16.5372C5.4484 16.706 5.6858 16.8008 5.93333 16.8008H18.0667C18.3142 16.8008 18.5516 16.706 18.7266 16.5372C18.9017 16.3684 19 16.1395 19 15.9008V15.9008Z" fill="#3173DC"/>
</svg>
