<svg t="1632359711428" class="icon" viewBox="0 0 1024 1024" version="1.1" xmlns="http://www.w3.org/2000/svg" p-id="8302" width="128" height="128"><path d="M508.8 515.2m-508.8 0a508.8 508.8 0 1 0 1017.6 0 508.8 508.8 0 1 0-1017.6 0Z" fill="#F0F0F0" p-id="8303"></path><path d="M105.6 204.8C64 256 35.2 316.8 16 380.8h265.6zM1001.6 380.8c-16-64-48-124.8-86.4-176L736 380.8zM16 646.4c16 64 48 124.8 86.4 176l176-176zM819.2 112C768 70.4 707.2 41.6 640 22.4V288zM198.4 918.4c51.2 38.4 112 70.4 176 86.4v-265.6zM377.6 22.4c-64 16-124.8 48-176 86.4L377.6 288zM640 1004.8c64-16 124.8-48 176-86.4L640 742.4zM736 646.4l176 176c38.4-51.2 70.4-112 86.4-176z" fill="#0052B4" p-id="8304"></path><path d="M1014.4 448H576V9.6c-22.4-3.2-44.8-3.2-67.2-3.2s-44.8 0-67.2 3.2V448H3.2c-3.2 22.4-3.2 44.8-3.2 67.2s0 44.8 3.2 67.2h438.4v438.4c22.4 3.2 44.8 3.2 67.2 3.2s44.8 0 67.2-3.2V582.4h438.4c3.2-22.4 3.2-44.8 3.2-67.2s0-44.8-3.2-67.2z" fill="#D80027" p-id="8305"></path><path d="M640 646.4l227.2 227.2c9.6-9.6 19.2-22.4 28.8-32l-192-195.2zM377.6 646.4l-227.2 227.2c9.6 9.6 22.4 19.2 32 28.8l195.2-195.2zM377.6 380.8L150.4 153.6c-12.8 12.8-22.4 22.4-32 35.2L313.6 384zM640 380.8l227.2-227.2c-9.6-9.6-22.4-19.2-32-28.8L640 320z" fill="#D80027" p-id="8306"></path></svg>