<svg width="30" height="24" viewBox="0 0 30 24" fill="none" xmlns="http://www.w3.org/2000/svg">
<path d="M23.0914 10.3103H17.8079L15.4572 2.3623L12.793 10.3103H4.59912L11.3378 15.2892L9.50204 22.4834L23.0914 10.3103Z" fill="white"/>
<path d="M1.73165 22.3699C0.097343 20.9082 1.79881 16.9571 5.78383 12.4578L4.82116 11.7041C0.836139 16.0435 -0.999657 20.1545 0.545098 22.3927C1.93314 24.4026 4.64206 24.5396 8.5823 22.7353C8.5823 22.7582 3.50028 23.9686 1.73165 22.3699Z" fill="white"/>
<path d="M11.3597 7.13666C12.188 6.45149 13.0387 5.812 13.8671 5.26386V4.19043C12.882 4.80708 11.897 5.46942 10.9343 6.20026C9.47908 7.29654 8.13582 8.43849 6.92688 9.58044L8.49402 9.67179C9.36714 8.82675 10.3298 7.98171 11.3597 7.13666Z" fill="white"/>
<path d="M29.7163 2.08905C29.6492 1.90634 29.5372 1.74646 29.4477 1.58659C27.9477 -0.971372 22.4403 -0.309043 16.5971 2.66002V3.59642C21.9478 0.695871 26.3358 0.398965 27.9477 1.08413C28.082 1.15265 28.485 1.3582 28.7089 1.67795C28.8656 1.8835 29.0447 2.1804 29.0895 2.2946C29.8507 4.23591 28.5746 6.97658 25.3955 10.1284C23.7388 11.7728 21.903 13.1431 18.9478 15.1301L20.3806 21.0454C20.403 21.0225 15.4777 17.6195 15.4777 17.6195L9.63452 22.4157L15.4329 18.4874L21.6567 22.6213C21.6567 22.6213 19.6418 15.3128 19.6866 15.29C28.9775 8.8037 30.8133 4.76121 29.7163 2.08905Z" fill="white"/>
</svg>
