<svg width="24" height="24" viewBox="0 0 24 24" fill="none" xmlns="http://www.w3.org/2000/svg">
<path fill-rule="evenodd" clip-rule="evenodd" d="M1.48103 1.17403H22.4672C22.6646 1.17093 22.8607 1.20734 23.0438 1.28109C23.2269 1.35485 23.3934 1.46448 23.5336 1.60353C23.6725 1.729 23.7837 1.88204 23.8602 2.05288C23.9367 2.22373 23.9768 2.40863 23.9779 2.59582V15.9251C23.9787 16.1126 23.9394 16.2981 23.8628 16.4692C23.7862 16.6403 23.6739 16.7931 23.5336 16.9174C23.2604 17.1731 22.9006 17.316 22.5265 17.3173H12.8257V21.2716H18.7498C18.9555 21.2716 19.1529 21.3522 19.2997 21.4963C19.4465 21.6403 19.5309 21.8362 19.5348 22.0418C19.5348 22.1441 19.5144 22.2455 19.4748 22.3399C19.4352 22.4343 19.3771 22.5199 19.304 22.5916C19.2309 22.6633 19.1443 22.7198 19.0491 22.7576C18.954 22.7954 18.8522 22.8139 18.7498 22.8119H5.22804C5.01847 22.8119 4.81726 22.7297 4.6677 22.5829C4.51813 22.4361 4.43216 22.2365 4.42828 22.0269C4.42826 21.9245 4.44866 21.8232 4.48829 21.7288C4.52792 21.6343 4.58597 21.5488 4.65906 21.4771C4.73215 21.4054 4.81881 21.3489 4.91396 21.3111C5.00911 21.2733 5.11085 21.2548 5.21323 21.2568H11.1374V17.3173H1.48103C1.09038 17.3117 0.717753 17.152 0.444309 16.873C0.305805 16.7503 0.194664 16.5999 0.118114 16.4315C0.0415643 16.2631 0.00132057 16.0805 0 15.8955V2.5662C0.0010885 2.37901 0.0411581 2.19411 0.117656 2.02326C0.194153 1.85242 0.305401 1.69938 0.444309 1.57391C0.724889 1.31112 1.09666 1.16772 1.48103 1.17403ZM1.55508 15.8066H22.2895V2.72911H1.55508V15.8066Z" fill="#3173DC"/>
<path d="M19.0972 6.9C19.0972 6.66131 18.9989 6.43239 18.8239 6.2636C18.6488 6.09482 18.4114 6 18.1639 6H6.03058C5.78304 6 5.54565 6.09482 5.37061 6.2636C5.19558 6.43239 5.09725 6.66131 5.09725 6.9C5.09725 7.13869 5.19558 7.36761 5.37061 7.5364C5.54565 7.70518 5.78304 7.8 6.03058 7.8H18.1639C18.4114 7.8 18.6488 7.70518 18.8239 7.5364C18.9989 7.36761 19.0972 7.13869 19.0972 6.9ZM17.0972 10.5C17.0972 10.2613 16.9989 10.0324 16.8239 9.8636C16.6488 9.69482 16.4114 9.6 16.1639 9.6H8.03058C7.78304 9.6 7.54565 9.69482 7.37061 9.8636C7.19558 10.0324 7.09725 10.2613 7.09725 10.5C7.09725 10.7387 7.19558 10.9676 7.37061 11.1364C7.54565 11.3052 7.78304 11.4 8.03058 11.4H16.1639C16.4114 11.4 16.6488 11.3052 16.8239 11.1364C16.9989 10.9676 17.0972 10.7387 17.0972 10.5Z" fill="#3173DC"/>
</svg>
