<svg t="1632359190750" class="icon" viewBox="0 0 1024 1024" version="1.1" xmlns="http://www.w3.org/2000/svg" p-id="8016" width="128" height="128"><path d="M512 512m-508.8 0a508.8 508.8 0 1 0 1017.6 0 508.8 508.8 0 1 0-1017.6 0Z" fill="#D80027" p-id="8017"></path><path d="M281.6 313.6l44.8 134.4h140.8L352 531.2l44.8 134.4-115.2-83.2-115.2 83.2 44.8-134.4L96 448h140.8zM608 790.4l-35.2-41.6-51.2 19.2 28.8-44.8-32-41.6 51.2 16 28.8-44.8 3.2 51.2 51.2 16-48 19.2zM672 668.8l16-51.2-41.6-28.8h51.2l16-51.2 19.2 48h51.2l-41.6 32 16 51.2-41.6-32zM764.8 377.6l-25.6 48 38.4 35.2-51.2-6.4-25.6 48-9.6-54.4-51.2-6.4 48-25.6-9.6-51.2 38.4 35.2zM608 230.4l-3.2 54.4 48 19.2-51.2 12.8-3.2 54.4-28.8-44.8-51.2 12.8 35.2-41.6-28.8-44.8 48 19.2z" fill="#FFDA44" p-id="8018"></path></svg>